<mxfile host="app.diagrams.net" agent="Mozilla/5.0 (Windows NT 10.0; Win64; x64) AppleWebKit/537.36 (KHTML, like Gecko) Chrome/140.0.0.0 Safari/537.36" version="28.2.5">
  <diagram id="Il9Fi1deLX2TvpJTLiLy" name="Página-1">
    <mxGraphModel dx="3419" dy="953" grid="0" gridSize="10" guides="1" tooltips="1" connect="1" arrows="1" fold="1" page="0" pageScale="1" pageWidth="827" pageHeight="1169" math="0" shadow="0">
      <root>
        <mxCell id="0" />
        <mxCell id="1" parent="0" />
        <mxCell id="XDs6qOpa_2APzOStyn8Z-67" value="" style="group" parent="1" vertex="1" connectable="0">
          <mxGeometry x="-326.25" y="448" width="166" height="97.72999999999996" as="geometry" />
        </mxCell>
        <mxCell id="XDs6qOpa_2APzOStyn8Z-58" value="" style="ellipse;shape=cloud;whiteSpace=wrap;html=1;strokeWidth=2;" parent="XDs6qOpa_2APzOStyn8Z-67" vertex="1">
          <mxGeometry x="28" width="103.5" height="69" as="geometry" />
        </mxCell>
        <mxCell id="XDs6qOpa_2APzOStyn8Z-59" value="&lt;span style=&quot;font-size: 15px;&quot;&gt;Assistir Vídeo&lt;/span&gt;" style="text;whiteSpace=wrap;html=1;labelBackgroundColor=none;align=center;" parent="XDs6qOpa_2APzOStyn8Z-67" vertex="1">
          <mxGeometry y="67.44999999999999" width="166" height="30.28" as="geometry" />
        </mxCell>
        <mxCell id="XDs6qOpa_2APzOStyn8Z-68" value="" style="group" parent="1" vertex="1" connectable="0">
          <mxGeometry x="-556.53" y="460.09000000000003" width="166" height="82.18999999999994" as="geometry" />
        </mxCell>
        <mxCell id="XDs6qOpa_2APzOStyn8Z-56" value="&lt;span style=&quot;font-size: 15px;&quot;&gt;Carregar Vídeo&lt;/span&gt;" style="text;whiteSpace=wrap;html=1;labelBackgroundColor=none;align=center;" parent="XDs6qOpa_2APzOStyn8Z-68" vertex="1">
          <mxGeometry y="51.90999999999997" width="166" height="30.28" as="geometry" />
        </mxCell>
        <mxCell id="Of0nD8nqhDQsk5s1kzBt-74" value="" style="rhombus;whiteSpace=wrap;html=1;strokeWidth=2;" vertex="1" parent="XDs6qOpa_2APzOStyn8Z-68">
          <mxGeometry x="55.5" y="-1.0900000000000318" width="55" height="55" as="geometry" />
        </mxCell>
        <mxCell id="XDs6qOpa_2APzOStyn8Z-69" value="" style="group" parent="1" vertex="1" connectable="0">
          <mxGeometry x="-356" y="316" width="245" height="92.28" as="geometry" />
        </mxCell>
        <mxCell id="XDs6qOpa_2APzOStyn8Z-49" value="&lt;span style=&quot;color: rgb(0, 0, 0); font-family: Helvetica; font-style: normal; font-variant-ligatures: normal; font-variant-caps: normal; letter-spacing: normal; orphans: 2; text-align: center; text-indent: 0px; text-transform: none; widows: 2; word-spacing: 0px; -webkit-text-stroke-width: 0px; white-space: normal; text-decoration-thickness: initial; text-decoration-style: initial; text-decoration-color: initial; float: none; display: inline !important;&quot;&gt;&lt;font style=&quot;font-size: 13px;&quot;&gt;&lt;b style=&quot;&quot;&gt;Visualizar Vídeo&lt;/b&gt;&lt;/font&gt;&lt;/span&gt;" style="text;whiteSpace=wrap;html=1;labelBackgroundColor=none;" parent="XDs6qOpa_2APzOStyn8Z-69" vertex="1">
          <mxGeometry x="70" y="62" width="105" height="30.28" as="geometry" />
        </mxCell>
        <mxCell id="XDs6qOpa_2APzOStyn8Z-57" value="" style="ellipse;shape=cloud;whiteSpace=wrap;html=1;strokeWidth=2;" parent="XDs6qOpa_2APzOStyn8Z-69" vertex="1">
          <mxGeometry x="66.75" width="103.5" height="69" as="geometry" />
        </mxCell>
        <mxCell id="XDs6qOpa_2APzOStyn8Z-81" style="edgeStyle=orthogonalEdgeStyle;rounded=0;orthogonalLoop=1;jettySize=auto;html=1;exitX=0.875;exitY=0.5;exitDx=0;exitDy=0;exitPerimeter=0;entryX=0;entryY=0.5;entryDx=0;entryDy=0;" parent="1" source="XDs6qOpa_2APzOStyn8Z-58" edge="1">
          <mxGeometry relative="1" as="geometry">
            <mxPoint x="-78" y="482.5" as="targetPoint" />
          </mxGeometry>
        </mxCell>
        <mxCell id="XDs6qOpa_2APzOStyn8Z-117" value="&lt;font style=&quot;font-size: 15px;&quot;&gt;&amp;gt;&amp;gt;&lt;/font&gt;" style="edgeLabel;html=1;align=center;verticalAlign=middle;resizable=0;points=[];" parent="XDs6qOpa_2APzOStyn8Z-81" vertex="1" connectable="0">
          <mxGeometry x="-0.0514" y="2" relative="1" as="geometry">
            <mxPoint as="offset" />
          </mxGeometry>
        </mxCell>
        <mxCell id="XDs6qOpa_2APzOStyn8Z-84" style="edgeStyle=orthogonalEdgeStyle;rounded=0;orthogonalLoop=1;jettySize=auto;html=1;exitX=1;exitY=0.5;exitDx=0;exitDy=0;entryX=0.16;entryY=0.55;entryDx=0;entryDy=0;entryPerimeter=0;" parent="1" source="Of0nD8nqhDQsk5s1kzBt-74" target="XDs6qOpa_2APzOStyn8Z-58" edge="1">
          <mxGeometry relative="1" as="geometry">
            <mxPoint x="-458.307" y="486.0450000000003" as="sourcePoint" />
          </mxGeometry>
        </mxCell>
        <mxCell id="XDs6qOpa_2APzOStyn8Z-115" value="&amp;gt;&amp;gt;" style="edgeLabel;html=1;align=center;verticalAlign=middle;resizable=0;points=[];fontSize=15;" parent="XDs6qOpa_2APzOStyn8Z-84" vertex="1" connectable="0">
          <mxGeometry x="-0.0748" y="2" relative="1" as="geometry">
            <mxPoint as="offset" />
          </mxGeometry>
        </mxCell>
        <mxCell id="XDs6qOpa_2APzOStyn8Z-106" style="edgeStyle=orthogonalEdgeStyle;rounded=0;orthogonalLoop=1;jettySize=auto;html=1;exitX=0.31;exitY=0.8;exitDx=0;exitDy=0;exitPerimeter=0;entryX=0.4;entryY=0.1;entryDx=0;entryDy=0;entryPerimeter=0;" parent="1" source="XDs6qOpa_2APzOStyn8Z-57" target="XDs6qOpa_2APzOStyn8Z-58" edge="1">
          <mxGeometry relative="1" as="geometry" />
        </mxCell>
        <mxCell id="XDs6qOpa_2APzOStyn8Z-110" style="edgeStyle=orthogonalEdgeStyle;rounded=0;orthogonalLoop=1;jettySize=auto;html=1;exitX=0.16;exitY=0.55;exitDx=0;exitDy=0;exitPerimeter=0;entryX=0.5;entryY=0;entryDx=0;entryDy=0;" parent="1" source="XDs6qOpa_2APzOStyn8Z-57" target="Of0nD8nqhDQsk5s1kzBt-74" edge="1">
          <mxGeometry relative="1" as="geometry">
            <mxPoint x="-473.53499999999985" y="460.09000000000015" as="targetPoint" />
          </mxGeometry>
        </mxCell>
        <mxCell id="XDs6qOpa_2APzOStyn8Z-156" style="edgeStyle=orthogonalEdgeStyle;rounded=0;orthogonalLoop=1;jettySize=auto;html=1;exitX=0.945;exitY=0.551;exitDx=0;exitDy=0;exitPerimeter=0;entryX=0.5;entryY=0;entryDx=0;entryDy=0;entryPerimeter=0;" parent="1" source="XDs6qOpa_2APzOStyn8Z-57" target="Of0nD8nqhDQsk5s1kzBt-75" edge="1">
          <mxGeometry relative="1" as="geometry">
            <mxPoint x="-50.5" y="455" as="targetPoint" />
          </mxGeometry>
        </mxCell>
        <mxCell id="Of0nD8nqhDQsk5s1kzBt-42" style="edgeStyle=orthogonalEdgeStyle;rounded=0;orthogonalLoop=1;jettySize=auto;html=1;exitX=1;exitY=0.5;exitDx=0;exitDy=0;exitPerimeter=0;entryX=0;entryY=0.5;entryDx=0;entryDy=0;entryPerimeter=0;" edge="1" parent="1" source="Of0nD8nqhDQsk5s1kzBt-47" target="Of0nD8nqhDQsk5s1kzBt-41">
          <mxGeometry relative="1" as="geometry">
            <mxPoint x="-261.86" y="624" as="targetPoint" />
          </mxGeometry>
        </mxCell>
        <mxCell id="Of0nD8nqhDQsk5s1kzBt-43" value="&lt;span style=&quot;font-size: 15px;&quot;&gt;&amp;gt;&amp;gt;&lt;/span&gt;" style="edgeLabel;html=1;align=center;verticalAlign=middle;resizable=0;points=[];" vertex="1" connectable="0" parent="Of0nD8nqhDQsk5s1kzBt-42">
          <mxGeometry x="-0.147" y="1" relative="1" as="geometry">
            <mxPoint as="offset" />
          </mxGeometry>
        </mxCell>
        <mxCell id="Of0nD8nqhDQsk5s1kzBt-45" style="edgeStyle=orthogonalEdgeStyle;rounded=0;orthogonalLoop=1;jettySize=auto;html=1;exitX=0.25;exitY=1;exitDx=0;exitDy=0;entryX=0.5;entryY=0;entryDx=0;entryDy=0;entryPerimeter=0;" edge="1" parent="1" target="Of0nD8nqhDQsk5s1kzBt-47" source="XDs6qOpa_2APzOStyn8Z-59">
          <mxGeometry relative="1" as="geometry">
            <mxPoint x="-347" y="551" as="sourcePoint" />
          </mxGeometry>
        </mxCell>
        <mxCell id="Of0nD8nqhDQsk5s1kzBt-46" value="" style="group" vertex="1" connectable="0" parent="1">
          <mxGeometry x="-495" y="608" width="166" height="78.27999999999997" as="geometry" />
        </mxCell>
        <mxCell id="Of0nD8nqhDQsk5s1kzBt-47" value="" style="strokeWidth=2;html=1;shape=mxgraph.flowchart.multi-document;whiteSpace=wrap;" vertex="1" parent="Of0nD8nqhDQsk5s1kzBt-46">
          <mxGeometry x="47" width="66.27" height="45.18" as="geometry" />
        </mxCell>
        <mxCell id="Of0nD8nqhDQsk5s1kzBt-48" value="&lt;span style=&quot;font-size: 15px;&quot;&gt;Reproduzir Vídeo&lt;/span&gt;" style="text;whiteSpace=wrap;html=1;labelBackgroundColor=none;align=center;" vertex="1" parent="Of0nD8nqhDQsk5s1kzBt-46">
          <mxGeometry y="48" width="166" height="30.28" as="geometry" />
        </mxCell>
        <mxCell id="Of0nD8nqhDQsk5s1kzBt-75" value="" style="strokeWidth=2;html=1;shape=mxgraph.flowchart.multi-document;whiteSpace=wrap;" vertex="1" parent="1">
          <mxGeometry x="-72" y="460.09" width="66.27" height="45.18" as="geometry" />
        </mxCell>
        <mxCell id="Of0nD8nqhDQsk5s1kzBt-76" value="&lt;span style=&quot;font-size: 15px;&quot;&gt;Fechar Vídeo&lt;/span&gt;" style="text;whiteSpace=wrap;html=1;labelBackgroundColor=none;align=center;" vertex="1" parent="1">
          <mxGeometry x="-119" y="505.2699999999999" width="166" height="30.28" as="geometry" />
        </mxCell>
        <mxCell id="Of0nD8nqhDQsk5s1kzBt-77" value="" style="group" vertex="1" connectable="0" parent="1">
          <mxGeometry x="-344" y="608" width="166" height="78.27999999999997" as="geometry" />
        </mxCell>
        <mxCell id="Of0nD8nqhDQsk5s1kzBt-41" value="" style="strokeWidth=2;html=1;shape=mxgraph.flowchart.multi-document;whiteSpace=wrap;" vertex="1" parent="Of0nD8nqhDQsk5s1kzBt-77">
          <mxGeometry x="46.5" width="66.27" height="45.18" as="geometry" />
        </mxCell>
        <mxCell id="Of0nD8nqhDQsk5s1kzBt-53" value="&lt;span style=&quot;font-size: 15px;&quot;&gt;Pausar/Retomar Vídeo&lt;/span&gt;" style="text;whiteSpace=wrap;html=1;labelBackgroundColor=none;align=center;" vertex="1" parent="Of0nD8nqhDQsk5s1kzBt-77">
          <mxGeometry x="-3.36" y="48" width="166" height="30.28" as="geometry" />
        </mxCell>
        <mxCell id="Of0nD8nqhDQsk5s1kzBt-78" style="edgeStyle=orthogonalEdgeStyle;rounded=0;orthogonalLoop=1;jettySize=auto;html=1;exitX=0.5;exitY=1;exitDx=0;exitDy=0;entryX=0.5;entryY=0;entryDx=0;entryDy=0;entryPerimeter=0;" edge="1" parent="1" source="XDs6qOpa_2APzOStyn8Z-59" target="Of0nD8nqhDQsk5s1kzBt-41">
          <mxGeometry relative="1" as="geometry" />
        </mxCell>
        <mxCell id="Of0nD8nqhDQsk5s1kzBt-79" style="edgeStyle=orthogonalEdgeStyle;rounded=0;orthogonalLoop=1;jettySize=auto;html=1;exitX=1;exitY=0.5;exitDx=0;exitDy=0;exitPerimeter=0;entryX=0;entryY=0.5;entryDx=0;entryDy=0;entryPerimeter=0;" edge="1" parent="1" source="Of0nD8nqhDQsk5s1kzBt-82" target="Of0nD8nqhDQsk5s1kzBt-85">
          <mxGeometry relative="1" as="geometry">
            <mxPoint x="15.139999999999986" y="623" as="targetPoint" />
          </mxGeometry>
        </mxCell>
        <mxCell id="Of0nD8nqhDQsk5s1kzBt-80" value="&lt;span style=&quot;font-size: 15px;&quot;&gt;|[]|&lt;/span&gt;" style="edgeLabel;html=1;align=center;verticalAlign=middle;resizable=0;points=[];" vertex="1" connectable="0" parent="Of0nD8nqhDQsk5s1kzBt-79">
          <mxGeometry x="-0.147" y="1" relative="1" as="geometry">
            <mxPoint as="offset" />
          </mxGeometry>
        </mxCell>
        <mxCell id="Of0nD8nqhDQsk5s1kzBt-81" value="" style="group" vertex="1" connectable="0" parent="1">
          <mxGeometry x="-188" y="608" width="166" height="78.27999999999997" as="geometry" />
        </mxCell>
        <mxCell id="Of0nD8nqhDQsk5s1kzBt-82" value="" style="strokeWidth=2;html=1;shape=mxgraph.flowchart.multi-document;whiteSpace=wrap;" vertex="1" parent="Of0nD8nqhDQsk5s1kzBt-81">
          <mxGeometry x="47" width="66.27" height="45.18" as="geometry" />
        </mxCell>
        <mxCell id="Of0nD8nqhDQsk5s1kzBt-83" value="&lt;span style=&quot;font-size: 15px;&quot;&gt;Voltar/Avançar Vídeo&lt;/span&gt;" style="text;whiteSpace=wrap;html=1;labelBackgroundColor=none;align=center;" vertex="1" parent="Of0nD8nqhDQsk5s1kzBt-81">
          <mxGeometry x="-2.86" y="48" width="166" height="30.28" as="geometry" />
        </mxCell>
        <mxCell id="Of0nD8nqhDQsk5s1kzBt-84" value="" style="group" vertex="1" connectable="0" parent="1">
          <mxGeometry x="-20" y="608" width="166" height="78.27999999999997" as="geometry" />
        </mxCell>
        <mxCell id="Of0nD8nqhDQsk5s1kzBt-85" value="" style="strokeWidth=2;html=1;shape=mxgraph.flowchart.multi-document;whiteSpace=wrap;" vertex="1" parent="Of0nD8nqhDQsk5s1kzBt-84">
          <mxGeometry x="46.5" width="66.27" height="45.18" as="geometry" />
        </mxCell>
        <mxCell id="Of0nD8nqhDQsk5s1kzBt-86" value="&lt;span style=&quot;font-size: 15px;&quot;&gt;Assistir em Tela Cheia&lt;/span&gt;" style="text;whiteSpace=wrap;html=1;labelBackgroundColor=none;align=center;" vertex="1" parent="Of0nD8nqhDQsk5s1kzBt-84">
          <mxGeometry y="48" width="166" height="30.28" as="geometry" />
        </mxCell>
        <mxCell id="Of0nD8nqhDQsk5s1kzBt-87" style="edgeStyle=orthogonalEdgeStyle;rounded=0;orthogonalLoop=1;jettySize=auto;html=1;exitX=1;exitY=0.5;exitDx=0;exitDy=0;exitPerimeter=0;entryX=0;entryY=0.5;entryDx=0;entryDy=0;entryPerimeter=0;" edge="1" parent="1" source="Of0nD8nqhDQsk5s1kzBt-41" target="Of0nD8nqhDQsk5s1kzBt-82">
          <mxGeometry relative="1" as="geometry" />
        </mxCell>
        <mxCell id="Of0nD8nqhDQsk5s1kzBt-92" value="&lt;font style=&quot;font-size: 15px;&quot;&gt;|=|&lt;/font&gt;" style="edgeLabel;html=1;align=center;verticalAlign=middle;resizable=0;points=[];" vertex="1" connectable="0" parent="Of0nD8nqhDQsk5s1kzBt-87">
          <mxGeometry x="-0.2026" relative="1" as="geometry">
            <mxPoint as="offset" />
          </mxGeometry>
        </mxCell>
        <mxCell id="Of0nD8nqhDQsk5s1kzBt-88" style="edgeStyle=orthogonalEdgeStyle;rounded=0;orthogonalLoop=1;jettySize=auto;html=1;exitX=0.75;exitY=1;exitDx=0;exitDy=0;entryX=0.5;entryY=0;entryDx=0;entryDy=0;entryPerimeter=0;" edge="1" parent="1" source="XDs6qOpa_2APzOStyn8Z-59" target="Of0nD8nqhDQsk5s1kzBt-82">
          <mxGeometry relative="1" as="geometry" />
        </mxCell>
        <mxCell id="Of0nD8nqhDQsk5s1kzBt-93" style="edgeStyle=orthogonalEdgeStyle;rounded=0;orthogonalLoop=1;jettySize=auto;html=1;exitX=1;exitY=1;exitDx=0;exitDy=0;entryX=0.5;entryY=0;entryDx=0;entryDy=0;entryPerimeter=0;" edge="1" parent="1" source="XDs6qOpa_2APzOStyn8Z-59" target="Of0nD8nqhDQsk5s1kzBt-85">
          <mxGeometry relative="1" as="geometry">
            <Array as="points">
              <mxPoint x="-160" y="569" />
              <mxPoint x="60" y="569" />
            </Array>
          </mxGeometry>
        </mxCell>
      </root>
    </mxGraphModel>
  </diagram>
</mxfile>
